<svg width="188" height="188" xmlns="http://www.w3.org/2000/svg" xmlns:xlink="http://www.w3.org/1999/xlink" xml:space="preserve" overflow="hidden"><g transform="translate(-546 -126)"><path d="M724.6 220C724.6 266.723 686.723 304.6 640 304.6 593.277 304.6 555.4 266.723 555.4 220 555.4 173.277 593.277 135.4 640 135.4 686.723 135.4 724.6 173.277 724.6 220Z" stroke="#0D9488" stroke-width="3.76" fill="#F8F9FA"/><path d="M564.8 220C583.6 173 621.2 267 640 220 658.8 173 696.4 267 715.2 220" stroke="#EA580C" stroke-width="5.64" stroke-linecap="round" fill="none"/><path d="M611.8 191.8 640 182.4 668.2 191.8 658.8 257.6 640 267 621.2 257.6Z" stroke="#2563EB" stroke-width="3.76" fill="none"/><path d="M640 182.4 640 267" stroke="#2563EB" stroke-width="3.76" fill="none"/><path d="M585.48 220C585.48 221.038 584.638 221.88 583.6 221.88 582.562 221.88 581.72 221.038 581.72 220 581.72 218.962 582.562 218.12 583.6 218.12 584.638 218.12 585.48 218.962 585.48 220Z" fill="#15803D"/><path d="M619.32 218.12 623.08 218.12 623.08 221.88 619.32 221.88Z" fill="#15803D"/><path d="M658.8 218.12 660.68 221.88 656.92 221.88Z" fill="#15803D"/><path d="M696.4 218.12 698.28 220 696.4 221.88 694.52 220Z" fill="#15803D"/></g></svg>